<svg xmlns="http://www.w3.org/2000/svg" viewBox="0 0 24 24">
  <g transform="translate(2.887 5.061)">
    <path d="M465.071,634.906a.424.424,0,1,0,.424.424A.423.423,0,0,0,465.071,634.906Zm4,1.271a.424.424,0,1,0,.424.424A.428.428,0,0,0,469.069,636.177Z" transform="translate(-458.201 -626.301)" fill="currentColor"/>
    <path d="M17.268,9.754a1.43,1.43,0,0,0-.606-.2,4.18,4.18,0,0,0-.252-4.159A7.843,7.843,0,0,0,9.744,1.855c-.816-.018-1.775.021-2.79.063a36.672,36.672,0,0,1-3.816.021c.214-.116.441-.228.637-.322C4.527,1.249,5.115.966,4.919.462Q4.762.02,4.005,0C2.948-.025.662.588.252,1.62c-.231.581-.27,1.7,2.073,2.7A24.8,24.8,0,0,0,7.062,5.328a2.641,2.641,0,0,1,.7.154c-.242.158-.487.326-.735.494A1.646,1.646,0,0,0,5.36,5.8a.707.707,0,0,0-.326.574,1.247,1.247,0,0,0,.364.795A6.269,6.269,0,0,0,3.774,8.847a2.869,2.869,0,0,0,.116,2.405c.588,1.152,1.884,1.954,3.858,2.388a9.3,9.3,0,0,0,6.281-.721,4.394,4.394,0,0,0,1.684-1.407l.266.084c.126.039.252.077.371.119a1.526,1.526,0,0,0,1.155-.049l.018-.011a1.03,1.03,0,0,0,.511-.6c.207-.693-.4-1.071-.767-1.3ZM6.264,6.5l-.235.172a1.1,1.1,0,0,1-.182-.238A.759.759,0,0,1,6.264,6.5Zm11,4.313a.241.241,0,0,1-.126.133.728.728,0,0,1-.532.011c-.126-.046-.263-.088-.4-.13a2.616,2.616,0,0,1-.756-.3.4.4,0,1,0-.641.48.878.878,0,0,0,.165.158c-.609.844-3.284,2.524-7.069,1.695C6.2,12.485,5.056,11.805,4.59,10.888a2.1,2.1,0,0,1-.1-1.712C4.954,8.213,8.3,6,10.433,4.74a.4.4,0,0,0,.14-.546.39.39,0,0,0-.546-.14c-.172.1-.756.448-1.506.924a2.959,2.959,0,0,0-1.39-.448,24.292,24.292,0,0,1-4.5-.952C2.038,3.326.69,2.66.987,1.911c.07-.175.4-.455,1.1-.725A6.427,6.427,0,0,1,3.575.819L3.417.9a6.5,6.5,0,0,0-1.355.8.333.333,0,0,1-.07-.053.393.393,0,0,0-.557-.018l-.007.007a.4.4,0,0,0-.014.564,1.439,1.439,0,0,0,.62.347l.028.011a18.135,18.135,0,0,0,4.912.158c1-.039,1.954-.077,2.745-.063a7,7,0,0,1,6.029,3.193,3.489,3.489,0,0,1,.06,3.659,1.094,1.094,0,0,1-.172-.165.407.407,0,0,0-.56-.063.4.4,0,0,0-.063.56,1.335,1.335,0,0,0,1.012.539h.028c.018,0,.032,0,.049,0a1,1,0,0,1,.781.084c.277.175.41.277.385.364Z" transform="translate(0 0)" fill="currentColor"/>
  </g>
  <rect id="viewbox" t="24" fill="none"/>
</svg>