<svg xmlns="http://www.w3.org/2000/svg" width="24" height="24" viewBox="0 0 24 24">
    <path d="M-653.649-296a9.087,9.087,0,0,1-2.35-2.884V-297h-1v-4h4v1h-2.417A8,8,0,0,0-648-295a8,8,0,0,0,7.747-6h1.029a9.043,9.043,0,0,1-3.127,5A9.013,9.013,0,0,1-648-294,9.014,9.014,0,0,1-653.649-296Zm-2.1-9h-1.028a9.049,9.049,0,0,1,3.127-5A9.015,9.015,0,0,1-648-312a9.013,9.013,0,0,1,5.649,2A9.071,9.071,0,0,1-640-307.117V-309h1v4h-4v-1h2.417A8,8,0,0,0-648-311a8,8,0,0,0-7.747,6h0Z" transform="translate(660 315)" fill="currentColor"/>
    <g transform="translate(788 317.001)" fill="none">
        <path d="M-775.5-300h-1v-2.042a2.982,2.982,0,0,1-1.238-.513l-1.443,1.443h0l-.706-.706,1.444-1.444a2.985,2.985,0,0,1-.513-1.238H-781v-1h2.042a2.985,2.985,0,0,1,.513-1.239l-1.443-1.443.707-.707,1.444,1.443a2.984,2.984,0,0,1,1.239-.513V-310h1v2.04a2.985,2.985,0,0,1,1.239.513l1.443-1.443.707.707-1.443,1.443a2.983,2.983,0,0,1,.513,1.239H-771v1h-2.041a2.986,2.986,0,0,1-.514,1.238l1.444,1.444-.707.706h0l-1.442-1.443a2.985,2.985,0,0,1-1.239.513V-300Z" stroke="none"/>
        <path d="M -776.0001831054688 -302.9719848632812 L -775.6656494140625 -303.028076171875 C -775.3667602539062 -303.0781860351562 -775.0895385742188 -303.193115234375 -774.8416748046875 -303.36962890625 L -774.5655517578125 -303.5662841796875 L -774.369140625 -303.8418884277344 C -774.1924438476562 -304.0897827148438 -774.077392578125 -304.3669738769531 -774.027099609375 -304.6656799316406 L -773.9708251953125 -304.9998779296875 L -774.0267944335938 -305.3346252441406 C -774.0767822265625 -305.6334228515625 -774.1917114257812 -305.9106750488281 -774.3683471679688 -306.1586608886719 L -774.5650634765625 -306.4349060058594 L -774.8414916992188 -306.6316528320312 C -775.08935546875 -306.80810546875 -775.3666381835938 -306.9229736328125 -775.66552734375 -306.9730529785156 L -775.9996948242188 -307.0290222167969 L -776.3338623046875 -306.9730529785156 C -776.6328735351562 -306.9229736328125 -776.9102783203125 -306.8080139160156 -777.1583251953125 -306.63134765625 L -777.4342651367188 -306.434814453125 L -777.6305541992188 -306.1589660644531 C -777.8070678710938 -305.910888671875 -777.9219360351562 -305.633544921875 -777.971923828125 -305.3346252441406 L -778.0278930664062 -305.0002746582031 L -777.9716186523438 -304.6654663085938 C -777.92138671875 -304.3668212890625 -777.8064575195312 -304.0897827148438 -777.6300048828125 -303.8419799804688 L -777.4336547851562 -303.5663146972656 L -777.15771484375 -303.3696899414062 C -776.91015625 -303.1932373046875 -776.6331787109375 -303.0783386230469 -776.3345336914062 -303.0281677246094 L -776.0001831054688 -302.9719848632812 M -775.5003051757812 -299.9996948242188 L -776.500244140625 -299.9996948242188 L -776.500244140625 -302.0419921875 C -776.9559936523438 -302.1185607910156 -777.3767700195312 -302.2978210449219 -777.7380981445312 -302.5553283691406 L -779.1821899414062 -301.1112060546875 L -779.8887329101562 -301.8177185058594 L -778.4445190429688 -303.2618713378906 C -778.701904296875 -303.6232604980469 -778.8811645507812 -304.0440368652344 -778.957763671875 -304.4996948242188 L -781.000244140625 -304.4996948242188 L -781.000244140625 -305.4996032714844 L -778.958251953125 -305.4996032714844 C -778.8819580078125 -305.9557495117188 -778.7026977539062 -306.3771057128906 -778.4453125 -306.73876953125 L -779.8887329101562 -308.1816101074219 L -779.1821899414062 -308.8890075683594 L -777.7384643554688 -307.4458618164062 C -777.376708984375 -307.7035217285156 -776.955322265625 -307.8829040527344 -776.4990234375 -307.9593200683594 L -776.500244140625 -309.9996032714844 L -775.5003051757812 -309.9996032714844 L -775.5003051757812 -307.9592895507812 C -775.0443725585938 -307.8829040527344 -774.6231689453125 -307.7037048339844 -774.2615966796875 -307.4463500976562 L -772.8182983398438 -308.8890075683594 L -772.1109008789062 -308.1816101074219 L -773.5537719726562 -306.73876953125 C -773.2962036132812 -306.3771057128906 -773.1168212890625 -305.9557495117188 -773.04052734375 -305.4996032714844 L -771.0003051757812 -305.4996032714844 L -771.001220703125 -304.4996948242188 L -773.0409545898438 -304.4996948242188 C -773.11767578125 -304.0439453125 -773.2971801757812 -303.6229553222656 -773.5547485351562 -303.2615356445312 L -772.1109008789062 -301.8177185058594 L -772.8182983398438 -301.1112060546875 L -774.2615966796875 -302.5550537109375 C -774.6231689453125 -302.2975769042969 -775.0443725585938 -302.1182861328125 -775.5003051757812 -302.0418395996094 L -775.5003051757812 -299.9996948242188 Z" stroke="none" fill="currentColor"/>
    </g>
</svg>
