<svg xmlns="http://www.w3.org/2000/svg" xmlns:xlink="http://www.w3.org/1999/xlink" viewBox="0 0 24 24">
  <defs>
    <clipPath id="clip-path">
      <rect width="18" height="17.7" fill="none"/>
    </clipPath>
  </defs>
  
  <g transform="translate(3 3)">
    <g transform="translate(0 0)" clip-path="url(#clip-path)">
      <path d="M8.95,1A8.073,8.073,0,0,1,14.937,3.66,7.925,7.925,0,0,1,16.946,9.9a8.034,8.034,0,0,1-5.525,6.711l-.087.028a1.179,1.179,0,0,1-1.326-.432,1.365,1.365,0,0,1-.243-1.189,6.008,6.008,0,0,0,.191-1.507,5.288,5.288,0,0,0-5.028-5.5,4.673,4.673,0,0,0-2.31.617,1.11,1.11,0,0,1-1.4-.229.907.907,0,0,1-.2-.76l.018-.1a8.063,8.063,0,0,1,6.49-6.411A8.539,8.539,0,0,1,8.95,1m0-1A9.518,9.518,0,0,0,7.36.135,9.022,9.022,0,0,0,.049,7.356c-.007.038-.014.075-.02.113A2,2,0,0,0,2.06,9.775a2.129,2.129,0,0,0,1.058-.283,3.622,3.622,0,0,1,1.809-.484,4.284,4.284,0,0,1,4.022,4.5,5,5,0,0,1-.159,1.257A2.325,2.325,0,0,0,10.964,17.7a2.241,2.241,0,0,0,.675-.106l.1-.031a9.089,9.089,0,0,0,6.208-7.554A9.026,9.026,0,0,0,8.95,0" transform="translate(0 0)" fill="currentColor"/>
    </g>
  </g>
  <g transform="translate(11 6)" fill="currentColor">
    <circle cx="1" cy="1" r="1" stroke="none"/>
    <circle cx="1" cy="1" r="0.5" fill="none"/>
  </g>
  <g transform="translate(14.5 7.5)" fill="currentColor">
    <circle cx="1" cy="1" r="1" stroke="none"/>
    <circle cx="1" cy="1" r="0.5" fill="none"/>
  </g>
  <g transform="translate(16 11)" fill="currentColor">
    <circle cx="1" cy="1" r="1" stroke="none"/>
    <circle cx="1" cy="1" r="0.5" fill="none"/>
  </g>
  <g transform="translate(14.5 14.5)" fill="currentColor">
    <circle cx="1" cy="1" r="1" stroke="none"/>
    <circle cx="1" cy="1" r="0.5" fill="none"/>
  </g>
  <rect id="viewbox" t="24" fill="none"/>
</svg>