<svg xmlns="http://www.w3.org/2000/svg" viewBox="0 0 24 24">
  <g transform="translate(-334 46)" fill="none">
    <path d="M337-26V-37h0v-5h6.511v.01L345.5-40H355v14Z" stroke="none"/>
    <path d="M 354.0005187988281 -27.00010299682617 L 354.0005187988281 -38.99960327148438 L 345.0859375 -38.99960327148438 L 343.0859985351562 -41.00030136108398 L 337.9996032714844 -41.00030136108398 L 338.0005187988281 -27.00010299682617 L 354.0005187988281 -27.00010299682617 M 355.0005187988281 -26.00010299682617 L 337.0005187988281 -26.00010299682617 L 336.9996032714844 -42.00030136108398 L 343.5102233886719 -42.00030136108398 L 343.5102233886719 -41.99040222167969 L 345.5002746582031 -39.99960327148438 L 355.0005187988281 -39.99960327148438 L 355.0005187988281 -26.00010299682617 Z" stroke="none" fill="currentColor"/>
  </g>
  <g transform="translate(-334 46)" fill="none">
    <path d="M343.5-37H337v-5h6.511v.01L346-39.5l-2.489,2.49V-37Z" stroke="none"/>
    <path d="M 343.0859985351562 -37.99990081787109 L 344.5856323242188 -39.50009918212891 L 343.0859985351562 -41.00029754638672 L 337.9996032714844 -41.00029754638672 L 337.9996032714844 -37.99990081787109 L 343.0859985351562 -37.99990081787109 M 343.5102233886719 -36.99990081787109 L 336.9996032714844 -36.99990081787109 L 336.9996032714844 -42.00029754638672 L 343.5102233886719 -42.00029754638672 L 343.5102233886719 -41.99039840698242 L 345.9996032714844 -39.50009918212891 L 343.5102233886719 -37.00979995727539 L 343.5102233886719 -36.99990081787109 Z" stroke="none" fill="currentColor"/>
  </g>
  <g transform="translate(7 15)" fill="none" stroke="currentColor" stroke-width="1">
    <rect width="10" height="5" stroke="none"/>
    <rect x="0.5" y="0.5" width="9" height="4" fill="none"/>
  </g>
  <g transform="translate(9 17)" fill="currentColor" stroke="none" stroke-width="1">
    <rect width="6" height="1" stroke="none"/>
    <rect x="0.5" y="0.5" width="5" fill="none"/>
  </g>
  <rect id="viewbox" t="24" fill="none"/>
</svg>