<svg xmlns="http://www.w3.org/2000/svg" width="24" height="24" viewBox="0 0 24 24">
    <rect id="viewbox" width="24" height="24" fill="none"/>
    <g transform="translate(-6 -6)">
        <line x2="17" transform="translate(9.5 14.5)" fill="none" stroke="currentColor" stroke-width="1"/>
        <line x2="17" transform="translate(9.5 21.5)" fill="none" stroke="currentColor" stroke-width="1"/>
        <path d="M-897-290a10.011,10.011,0,0,1-10-10,10.011,10.011,0,0,1,10-10,10.011,10.011,0,0,1,10,10A10.011,10.011,0,0,1-897-290Zm0-19a9.01,9.01,0,0,0-9,9,9.01,9.01,0,0,0,9,9,9.01,9.01,0,0,0,9-9A9.01,9.01,0,0,0-897-309Z" transform="translate(915 318)" fill="currentColor"/>
        <path d="M-897-290c-2.205,0-4-4.486-4-10s1.794-10,4-10,4,4.486,4,10S-894.794-290-897-290Zm0-19c-1.654,0-3,4.037-3,9s1.346,9,3,9,3-4.037,3-9S-895.346-309-897-309Z" transform="translate(915 318)" fill="currentColor"/>
    </g>
</svg>