<svg xmlns="http://www.w3.org/2000/svg" width="24" height="24" viewBox="0 0 24 24">
  <g transform="translate(-456 49)" fill="none">
    <path d="M465-31v-3a4.992,4.992,0,0,1-2-4,5,5,0,0,1,5-5,5,5,0,0,1,5,5,4.992,4.992,0,0,1-2,4v3Z" stroke="none"/>
    <path d="M 469.9997253417969 -31.99960136413574 L 469.9997253417969 -34.49925994873047 L 470.3992614746094 -34.79927062988281 C 471.4168090820312 -35.56335067749023 472.0003967285156 -36.72990036010742 472.0003967285156 -37.99980163574219 C 472.0003967285156 -40.20563125610352 470.2058410644531 -42.00020217895508 468 -42.00020217895508 C 465.7941589355469 -42.00020217895508 463.9996032714844 -40.20563125610352 463.9996032714844 -37.99980163574219 C 463.9996032714844 -36.72991180419922 464.5831909179688 -35.56336212158203 465.6007690429688 -34.79925918579102 L 466.0003051757812 -34.49925231933594 L 466.0003051757812 -31.99960136413574 L 469.9997253417969 -31.99960136413574 M 470.9997253417969 -30.99960136413574 L 465.0003051757812 -30.99960136413574 L 465.0003051757812 -33.99961090087891 C 463.78564453125 -34.91171264648438 462.9996032714844 -36.36404037475586 462.9996032714844 -37.99980163574219 C 462.9996032714844 -40.76100158691406 465.2388000488281 -43.00020217895508 468 -43.00020217895508 C 470.7611999511719 -43.00020217895508 473.0003967285156 -40.76100158691406 473.0003967285156 -37.99980163574219 C 473.0003967285156 -36.36404037475586 472.2143859863281 -34.91172027587891 470.9997253417969 -33.9996223449707 L 470.9997253417969 -30.99960136413574 Z" stroke="none" fill="currentColor"/>
  </g>
  <g transform="translate(-459 45)" fill="none">
    <path d="M 464.9895324707031 -27.98968505859375 L 464.9892272949219 -27.9899730682373 L 466.4037780761719 -29.40427398681641 C 466.4038696289062 -29.4041805267334 466.4039611816406 -29.40408515930176 466.404052734375 -29.40399169921875 L 464.9895324707031 -27.98968505859375 Z M 466.4042663574219 -38.59562683105469 L 464.9892272949219 -40.01043701171875 L 464.989501953125 -40.01070785522461 L 466.4044189453125 -38.59577560424805 C 466.4043884277344 -38.59572982788086 466.4043273925781 -38.59567260742188 466.4042663574219 -38.59562683105469 Z" stroke="none"/>
    <path d="M 477.0108032226562 -27.28260612487793 L 477.0101013183594 -27.28330612182617 L 474.8749389648438 -29.41849708557129 C 475.1275634765625 -29.63240623474121 475.3653869628906 -29.86976623535156 475.5818176269531 -30.12548637390137 L 477.7173156738281 -27.9900074005127 L 477.0108032226562 -27.28260612487793 Z M 464.989501953125 -27.28260612487793 L 464.2821044921875 -27.9900074005127 L 466.4184265136719 -30.12598609924316 C 466.6323547363281 -29.87325668334961 466.8698425292969 -29.63526725769043 467.1257934570312 -29.41857719421387 L 464.989501953125 -27.28260612487793 Z M 479.9997253417969 -33.49979782104492 L 476.9794921875 -33.49979782104492 C 476.9927673339844 -33.66092681884766 477 -33.82861709594727 477 -33.99929809570312 C 477 -34.16586685180664 476.9930725097656 -34.3342170715332 476.9794311523438 -34.49970626831055 L 479.9997253417969 -34.49970626831055 L 479.9997253417969 -33.49979782104492 Z M 465.0208129882812 -33.49979782104492 L 461.9997253417969 -33.49979782104492 L 461.9997253417969 -34.49970626831055 L 465.0208740234375 -34.49970626831055 C 465.007568359375 -34.33796691894531 465.0003051757812 -34.16996765136719 465.0003051757812 -33.99929809570312 C 465.0003051757812 -33.83329772949219 465.0071716308594 -33.66560745239258 465.0207214355469 -33.50087738037109 L 465.0208129882812 -33.49979782104492 Z M 466.4189147949219 -37.87392807006836 L 466.4181518554688 -37.87470626831055 L 464.2821044921875 -40.01040649414062 L 464.989501953125 -40.71780776977539 L 467.1261596679688 -38.58114624023438 C 466.8735656738281 -38.3672981262207 466.6358642578125 -38.130126953125 466.4196166992188 -37.8747673034668 L 466.4189147949219 -37.87392807006836 Z M 475.5813293457031 -37.87442779541016 L 475.5806274414062 -37.87524795532227 C 475.3656311035156 -38.12912750244141 475.1280212402344 -38.36670684814453 474.8743896484375 -38.58138656616211 L 477.0108032226562 -40.71780776977539 L 477.7173156738281 -40.01040649414062 L 475.5813293457031 -37.87442779541016 Z M 471.5001220703125 -39.97800827026367 L 471.4990234375 -39.97809600830078 C 471.1829528808594 -40.00625991821289 470.8362121582031 -40.00668334960938 470.5013122558594 -39.97911834716797 L 470.5002136230469 -43.00019836425781 L 471.5001220703125 -43.00019836425781 L 471.5001220703125 -39.97800827026367 Z" stroke="none" fill="currentColor"/>
  </g>
  <rect width="6" height="1" transform="translate(9 19)" fill="currentColor"/>
  <rect width="4" height="1" transform="translate(10 21)" fill="currentColor"/>
  <g transform="translate(-455 49)" fill="none">
    <path d="M464-38a3,3,0,0,1,3-3v1a2,2,0,0,0-2,2Z" stroke="none"/>
    <path d="M 465.0003051757812 -37.99979782104492 L 463.99951171875 -37.99979782104492 C 463.99951171875 -39.65399932861328 465.3459167480469 -41.00040054321289 467.0001220703125 -41.00040054321289 L 467.0001220703125 -40.0004997253418 C 465.8976135253906 -40.0004997253418 465.0003051757812 -39.10319900512695 465.0003051757812 -37.99979782104492 Z" stroke="none" fill="currentColor"/>
  </g>
  <rect id="viewbox" t="24" fill="none"/>
</svg>
