<svg xmlns="http://www.w3.org/2000/svg" width="24" height="24" viewBox="0 0 24 24">
  <g transform="translate(-418 45)" fill="none">
    <path d="M427.154-24.461h0A9,9,0,0,1,421-33a9.01,9.01,0,0,1,9-9,9.01,9.01,0,0,1,9,9,8.995,8.995,0,0,1-6.153,8.539l-1.9-5.692A3,3,0,0,0,433-33a3,3,0,0,0-3-3,3,3,0,0,0-3,3,3,3,0,0,0,2.052,2.847l-1.9,5.692Z" stroke="none"/>
    <path d="M 426.5411071777344 -25.78553009033203 L 427.826416015625 -29.64092445373535 C 426.7049560546875 -30.36580657958984 425.9996032714844 -31.61934089660645 425.9996032714844 -33.00029373168945 C 425.9996032714844 -35.20574188232422 427.7942810058594 -37.00000381469727 430.0002136230469 -37.00000381469727 C 432.2056579589844 -37.00000381469727 433.9999084472656 -35.20574188232422 433.9999084472656 -33.00029373168945 C 433.9999084472656 -31.61957359313965 433.2948913574219 -30.36619567871094 432.1737670898438 -29.64122581481934 L 433.4594116210938 -25.78622245788574 C 436.2113342285156 -27.10497093200684 438.0002136230469 -29.89153480529785 438.0002136230469 -33.00029373168945 C 438.0002136230469 -37.41150283813477 434.4114379882812 -41.00029373168945 430.0002136230469 -41.00029373168945 C 425.5889892578125 -41.00029373168945 422.0002136230469 -37.41150283813477 422.0002136230469 -33.00029373168945 C 422.0002136230469 -29.89206886291504 423.7883911132812 -27.10556411743164 426.5411071777344 -25.78553009033203 M 427.1535034179688 -24.46055221557617 L 427.1525573730469 -24.46087265014648 C 423.47265625 -25.69193267822266 421.0002136230469 -29.1236629486084 421.0002136230469 -33.00029373168945 C 421.0002136230469 -37.96291351318359 425.03759765625 -42.00029373168945 430.0002136230469 -42.00029373168945 C 434.9628295898438 -42.00029373168945 439.0002136230469 -37.96291351318359 439.0002136230469 -33.00029373168945 C 439.0002136230469 -29.12318229675293 436.5274353027344 -25.69176292419434 432.8470153808594 -24.46163368225098 L 430.9488220214844 -30.15339279174805 C 432.1759033203125 -30.56339263916016 432.9999084472656 -31.70696258544922 432.9999084472656 -33.00029373168945 C 432.9999084472656 -34.65434265136719 431.6542663574219 -36.00000381469727 430.0002136230469 -36.00000381469727 C 428.3456726074219 -36.00000381469727 426.9996032714844 -34.65434265136719 426.9996032714844 -33.00029373168945 C 426.9996032714844 -31.70719337463379 427.8241577148438 -30.56308364868164 429.0513610839844 -30.15332221984863 L 427.1535034179688 -24.46055221557617 Z" stroke="none" fill="currentColor"/>
  </g>
  <rect id="viewbox" t="24" fill="none"/>
</svg>