<svg xmlns="http://www.w3.org/2000/svg" viewBox="0 0 24 24">
  <g transform="translate(5 6)" fill="none" stroke="currentColor" stroke-width="1">
    <rect width="16" height="14" stroke="none"/>
    <rect x="0.5" y="0.5" width="15" height="13" fill="none"/>
  </g>
  <g transform="translate(21 20) rotate(180)" fill="none">
    <path d="M2,0H0V3L4,7,6.5,4.5,12,10l4-4V0Z" stroke="none"/>
    <path d="M 1.000001907348633 1 L 1.000001907348633 2.5854811668396 L 4.000453948974609 5.585940837860107 L 6.500051498413086 3.08603048324585 L 11.99969100952148 8.585679054260254 L 15.00018119812012 5.58518123626709 L 15.00018119812012 1 L 1.000001907348633 1 M 1.9073486328125e-06 0 L 16.00018119812012 0 L 16.00018119812012 5.999400615692139 L 11.99969100952148 9.999900817871094 L 6.500091552734375 4.500290393829346 L 4.000491142272949 7.000200271606445 L 1.9073486328125e-06 2.999700546264648 L 1.9073486328125e-06 0 Z" stroke="none" fill="currentColor"/>
  </g>
  <g transform="translate(21 20) rotate(180)" fill="none">
    <path d="M0,0V3L4,7l7-7Z" stroke="none"/>
    <path d="M 0.9999980926513672 0.9999990463256836 L 0.9999980926513672 2.585479736328125 L 4.000450611114502 5.585939407348633 L 8.585821151733398 0.9999990463256836 L 0.9999980926513672 0.9999990463256836 M -1.9073486328125e-06 -9.5367431640625e-07 L 10.99981880187988 -9.5367431640625e-07 L 4.00048828125 7.000199317932129 L -1.9073486328125e-06 2.999699115753174 L -1.9073486328125e-06 -9.5367431640625e-07 Z" stroke="none" fill="currentColor"/>
  </g>
  <g transform="translate(314 -24) rotate(180)" fill="none">
    <path d="M311-28H295v-1h15V-42h1v14Z" stroke="none"/>
    <path d="M 311.0003967285156 -27.99989891052246 L 295.0002136230469 -27.99989891052246 L 294.999267578125 -28.99979972839355 L 309.9996032714844 -28.99979972839355 L 309.9996032714844 -41.99935913085938 L 311.0003967285156 -42.00029754638672 L 311.0003967285156 -27.99989891052246 Z" stroke="none" fill="currentColor"/>
  </g>
  <g transform="translate(16 9)" fill="none" stroke="currentColor" stroke-width="1">
    <circle cx="1" cy="1" r="1" stroke="none"/>
    <circle cx="1" cy="1" r="0.5" fill="none"/>
  </g>
  <rect id="viewbox" t="24" fill="none"/>
</svg>