<svg xmlns="http://www.w3.org/2000/svg" viewBox="0 0 24 24">
  <g transform="translate(3 3)" fill="none" stroke="currentColor" stroke-width="1">
    <rect width="18" height="18" rx="4" stroke="none"/>
    <rect x="0.5" y="0.5" width="17" height="17" rx="3.5" fill="none"/>
  </g>
  <g transform="translate(8 8)" fill="#fff" stroke="currentColor" stroke-width="1">
    <rect width="2" height="2" stroke="none"/>
    <rect x="0.5" y="0.5" width="1" height="1" fill="none"/>
  </g>
  <g transform="translate(8 11)" fill="#fff" stroke="currentColor" stroke-width="1">
    <rect width="2" height="2" stroke="none"/>
    <rect x="0.5" y="0.5" width="1" height="1" fill="none"/>
  </g>
  <g transform="translate(8 14)" fill="#fff" stroke="currentColor" stroke-width="1">
    <rect width="2" height="2" stroke="none"/>
    <rect x="0.5" y="0.5" width="1" height="1" fill="none"/>
  </g>
  <g transform="translate(11 8)" fill="#fff" stroke="currentColor" stroke-width="1">
    <rect width="2" height="2" stroke="none"/>
    <rect x="0.5" y="0.5" width="1" height="1" fill="none"/>
  </g>
  <g transform="translate(11 11)" fill="#fff" stroke="currentColor" stroke-width="1">
    <rect width="2" height="2" stroke="none"/>
    <rect x="0.5" y="0.5" width="1" height="1" fill="none"/>
  </g>
  <g transform="translate(11 14)" fill="#fff" stroke="currentColor" stroke-width="1">
    <rect width="2" height="2" stroke="none"/>
    <rect x="0.5" y="0.5" width="1" height="1" fill="none"/>
  </g>
  <g transform="translate(14 11)" fill="#fff" stroke="currentColor" stroke-width="1">
    <rect width="2" height="2" stroke="none"/>
    <rect x="0.5" y="0.5" width="1" height="1" fill="none"/>
  </g>
  <rect id="viewbox" t="24" fill="none"/>
</svg>