<svg xmlns="http://www.w3.org/2000/svg" width="24" height="24" viewBox="0 0 24 24">
    <g transform="translate(-6 -7)">
        <path d="M136,524h13" transform="translate(-127 -511.5)" fill="none" stroke="currentColor" stroke-width="1"/>
        <path d="M139.5,521.5,141,524" transform="translate(-125 -511.5)" fill="none" stroke="currentColor" stroke-width="1"/>
        <path d="M143.5,524.5a8.8,8.8,0,0,1-3,6.5c-2,2-5,4.5-5,4.5" transform="translate(-124.5 -512)" fill="none" stroke="currentColor" stroke-width="1"/>
        <path d="M138,527s2,2.51,3.5,4,3,3,3,3" transform="translate(-125.5 -512)" fill="none" stroke="currentColor" stroke-width="1"/>
    </g>
    <path d="M-116.062-499l-1.576-4h-3.712l-1.576,4H-124l3.939-10h1.136l3.939,10Zm-1.969-5-1.462-3.712L-120.956-504Z" transform="translate(136.001 519)" fill="currentColor"/>
</svg>