<svg xmlns="http://www.w3.org/2000/svg" viewBox="0 0 24 24">
  
  <g transform="translate(-166 46)" fill="currentColor">
    <path d="M183-25v-1h3v-3h1v4Zm-7,0v-1h4v1Zm-7,0v-4h1v3h3v1Zm17-7v-4h1v4Zm-17,0v-4h1v4Zm0-7v-4h4v1h-3v3Zm17-2v-1h-1v-1h2v2Zm-10-1v-1h4v1Z" stroke="none"/>
    <path d="M 187.0001983642578 -25.00020217895508 L 182.9997100830078 -25.00020217895508 L 182.9997100830078 -26.00010299682617 L 186.0003051757812 -26.00010299682617 L 186.0003051757812 -28.99980163574219 L 187.0001983642578 -28.99980163574219 L 187.0001983642578 -25.00020217895508 Z M 180 -25.00020217895508 L 176.0003967285156 -25.00020217895508 L 176.0003967285156 -26.00010299682617 L 180 -26.00010299682617 L 180 -25.00020217895508 Z M 172.9998016357422 -25.00020217895508 L 169.0001983642578 -25.00020217895508 L 169.0001983642578 -28.99980163574219 L 170.0001068115234 -28.99980163574219 L 170.0001068115234 -26.00010299682617 L 172.9998016357422 -26.00010299682617 L 172.9998016357422 -25.00020217895508 Z M 187.0001983642578 -32.00040054321289 L 186.0003051757812 -32.00040054321289 L 186.0003051757812 -36.00000381469727 L 187.0001983642578 -36.00000381469727 L 187.0001983642578 -32.00040054321289 Z M 170.0001068115234 -32.00040054321289 L 169.0001983642578 -32.00040054321289 L 169.0001983642578 -36.00000381469727 L 170.0001068115234 -36.00000381469727 L 170.0001068115234 -32.00040054321289 Z M 170.0001068115234 -38.99970245361328 L 169.0001983642578 -38.99970245361328 L 169.0001983642578 -43.00020217895508 L 172.9998016357422 -43.00020217895508 L 172.9998016357422 -42.00030136108398 L 170.0001068115234 -42.00030136108398 L 170.0001068115234 -38.99970245361328 Z M 187.0001983642578 -41.00040054321289 L 186.0003051757812 -41.00040054321289 L 186.0003051757812 -42.00030136108398 L 185.0004119873047 -42.00030136108398 L 185.0004119873047 -43.00020217895508 L 187.0001983642578 -43.00020217895508 L 187.0001983642578 -41.00040054321289 Z M 180 -42.00030136108398 L 176.0003967285156 -42.00030136108398 L 176.0003967285156 -43.00020217895508 L 180 -43.00020217895508 L 180 -42.00030136108398 Z" stroke="none" fill="currentColor"/>
  </g>
  <g transform="translate(-164.5 37.5)" fill="none">
    <path d="M181-24.111h0A6.029,6.029,0,0,0,175-30a6.008,6.008,0,0,0,6-6,5.965,5.965,0,0,0,1.76,4.241A5.959,5.959,0,0,0,187-30,6.03,6.03,0,0,0,181-24.111Z" stroke="none"/>
    <path d="M 181.0003204345703 -27.58661842346191 C 181.5939636230469 -28.56996917724609 182.4223480224609 -29.39847183227539 183.4047698974609 -29.99285697937012 C 182.9184417724609 -30.28558921813965 182.4643707275391 -30.64003753662109 182.0523834228516 -31.05209922790527 C 181.6428680419922 -31.46171951293945 181.2901763916016 -31.91313362121582 180.9984741210938 -32.39645004272461 C 180.4054107666016 -31.41348648071289 179.5773010253906 -30.58696746826172 178.5929107666016 -29.99551773071289 C 179.5767211914062 -29.40095520019531 180.4062042236328 -28.5715160369873 181.0003204345703 -27.58661842346191 M 181.0009155273438 -24.11063957214355 L 180.9989013671875 -24.11063957214355 C 180.9398803710938 -27.35787963867188 178.2486114501953 -29.99969863891602 174.9996032714844 -29.99969863891602 C 178.3098449707031 -30.00169944763184 180.9999237060547 -32.69252777099609 180.9999237060547 -36 C 181.0009460449219 -34.39992904663086 181.6251525878906 -32.89381790161133 182.7595825195312 -31.75912857055664 C 183.8939208984375 -30.62454795837402 185.3999328613281 -29.99969863891602 187.0001983642578 -29.99969863891602 C 183.74951171875 -29.99769973754883 181.0599060058594 -27.35677909851074 181.0009155273438 -24.11063957214355 Z" stroke="none" fill="currentColor"/>
  </g>
  <rect id="viewbox" t="24" fill="none"/>
</svg>