<svg xmlns="http://www.w3.org/2000/svg" width="24" height="24" viewBox="0 0 24 24">
    <g transform="translate(825.551 312.1)" fill="none">
        <path d="M-823-293.529l7.919-7.92a5.965,5.965,0,0,1-.57-2.552,6.006,6.006,0,0,1,6-6,5.978,5.978,0,0,1,3.266.966l-4.337,4.337,1.768,1.768,4.337-4.337a5.974,5.974,0,0,1,.967,3.266,6.007,6.007,0,0,1-6,6,5.964,5.964,0,0,1-2.619-.6l-7.9,7.9Z" stroke="none"/>
        <path d="M -820.1717529296875 -292.1150817871094 L -812.47265625 -299.8135375976562 L -811.8317260742188 -299.5012817382812 C -811.1488647460938 -299.1685791015625 -810.4151000976562 -298.9999084472656 -809.6508178710938 -298.9999084472656 C -806.8936157226562 -298.9999084472656 -804.6505126953125 -301.2430419921875 -804.6505126953125 -304.0002136230469 C -804.6505126953125 -304.5375366210938 -804.73583984375 -305.0657348632812 -804.9014282226562 -305.5677490234375 L -808.9542236328125 -301.5149841308594 L -812.135986328125 -304.6968078613281 L -808.0836181640625 -308.7491760253906 C -808.5853271484375 -308.9144287109375 -809.113525390625 -308.9996032714844 -809.6508178710938 -308.9996032714844 C -812.407470703125 -308.9996032714844 -814.6502075195312 -306.7568664550781 -814.6502075195312 -304.0002136230469 C -814.6502075195312 -303.25732421875 -814.4906616210938 -302.5424194335938 -814.1759643554688 -301.8753051757812 L -813.8757934570312 -301.2390747070312 L -821.58544921875 -293.5287475585938 L -820.1717529296875 -292.1150817871094 M -820.1718139648438 -290.7008972167969 L -822.9996337890625 -293.5287170410156 L -815.0803833007812 -301.4486694335938 C -815.4458618164062 -302.2234497070312 -815.6502075195312 -303.0882873535156 -815.6502075195312 -304.0002136230469 C -815.6502075195312 -307.30859375 -812.959228515625 -309.9996032714844 -809.6508178710938 -309.9996032714844 C -808.4862060546875 -309.9996032714844 -807.356689453125 -309.6657104492188 -806.3847045898438 -309.0339050292969 L -810.7218017578125 -304.6968078613281 L -808.9542236328125 -302.92919921875 L -804.6171264648438 -307.2662963867188 C -803.9844360351562 -306.2933959960938 -803.6505126953125 -305.164794921875 -803.6505126953125 -304.0002136230469 C -803.6505126953125 -300.6918029785156 -806.3424072265625 -297.9999084472656 -809.6508178710938 -297.9999084472656 C -810.5891723632812 -297.9999084472656 -811.4779663085938 -298.216552734375 -812.2697143554688 -298.602294921875 L -820.1718139648438 -290.7008972167969 Z" stroke="none" fill="currentColor"/>
    </g>
</svg>